<svg id="Layer_1" enable-background="new 0 0 511.707 511.707" height="512" viewBox="0 0 511.707 511.707" width="512" xmlns="http://www.w3.org/2000/svg"><path d="m464.574 385.454h-108.692c-5.52 0-8.732-5.811-6.438-10.377l160.679-321.382c2.887-5.774 1.755-12.749-2.81-17.314-4.566-4.566-11.54-5.698-17.314-2.81l-321.332 160.667c-71.728 35.849-103.978 118.121-79.927 191.216h-41.899c-62.359 2.291-62.548 91.897.001 94.267-.001 0 417.733 0 417.733 0 25.486 0 47.133-20.554 47.133-47.133-.001-25.99-21.145-47.134-47.134-47.134zm-1.408-304.926-40.354 80.709-40.335-40.364zm-108.97 54.485 54.472 54.511-16.153 32.306-70.661-70.646zm-60.627 30.314 84.805 84.787-16.15 32.3-100.949-100.941zm-60.579 30.289 115.091 115.083-16.15 32.3-131.235-131.236zm231.584 254.104h-417.734c-9.367 0-17.133-7.545-17.133-17.133 0-9.599 7.775-17.133 17.133-17.133h96.4c8.284 0 15-6.716 15-15s-6.716-15-15-15h-22.505c-24.445-58.713-2.064-126.468 51.997-159.228l146.371 146.371c-3.536 22.638 14.243 42.857 36.778 42.857h108.691c22.73.873 22.672 33.462.002 34.266z"/></svg>