<svg width="1009" height="170" viewBox="0 0 1009 170" fill="none" xmlns="http://www.w3.org/2000/svg">
<path d="M269.934 35.8C273.834 43.7 275.734 52.6 275.734 62.3C275.734 72 273.834 80.8 269.934 88.7C266.034 96.6 261.034 102.8 254.934 107.4C242.534 117 229.634 121.8 216.334 121.8H188.234V147.2C188.234 150.6 188.134 153.2 187.934 154.9C187.734 156.6 187.034 158.6 185.834 160.8C183.734 164.8 177.934 166.9 168.334 166.9C157.834 166.9 151.734 164.1 149.934 158.6C149.034 156.1 148.634 152.2 148.634 146.9V22.3C148.634 18.9 148.734 16.3 148.934 14.6C149.134 12.9 149.834 10.9 151.034 8.70001C153.134 4.70001 158.934 2.60001 168.534 2.60001H216.534C229.734 2.60001 242.534 7.4 254.934 17C260.934 21.6 266.034 27.8 269.934 35.8ZM229.734 77.1C234.034 73.8 236.234 68.9 236.234 62.3C236.234 55.7 234.034 50.7 229.734 47.4C225.434 44 220.934 42.4 216.234 42.4H188.134V82.1H216.434C220.934 82 225.334 80.4 229.734 77.1Z" fill="black"/>
<path d="M555.134 139.5L494.534 14.3C490.634 6.50002 484.634 2.60001 476.534 2.60001C472.834 2.60001 469.234 3.60001 465.834 5.70001C462.434 7.80001 459.934 10.6 458.334 14L400.434 133.8H352.334V22.5C352.334 17.3 351.934 13.4 351.234 10.8C349.334 5.30002 343.034 2.5 332.634 2.5C323.034 2.5 317.234 4.50001 315.134 8.60001C313.934 10.8 313.234 12.8 313.034 14.5C312.834 16.2 312.734 18.8 312.734 22.2V147C312.734 152.2 313.134 156.1 314.034 158.4C315.834 164.1 321.934 166.9 332.434 166.9H413.234C417.434 166.9 420.834 166.3 423.534 165.2C423.634 165.2 423.834 165.1 423.934 165.1C425.834 164.4 427.934 163 429.134 161.9C430.434 160.7 432.234 159.1 433.734 156.1L445.434 131.9H507.634L519.334 156.1C520.834 159.1 522.034 161.3 522.834 162.8C523.634 164.3 525.034 165.7 526.834 167.1C528.734 168.4 531.134 169.1 534.034 169.1C536.934 169.1 540.934 167.8 546.034 165.3C554.734 161 559.034 156.1 559.034 150.7C558.934 148.4 557.634 144.6 555.134 139.5ZM461.534 98.8L476.334 68.1L491.334 98.8H461.534Z" fill="black"/>
<path d="M662.834 124L666.834 121.1C671.934 118.1 675.534 116.6 677.634 116.6C682.234 116.6 687.234 120.8 692.634 129.2C695.934 134.4 697.534 138.6 697.534 141.8C697.534 144.9 696.534 147.6 694.534 149.7C692.534 151.8 690.134 153.7 687.434 155.3C684.734 156.9 682.134 158.5 679.734 160C677.234 161.5 672.234 163.4 664.634 165.8C657.034 168.2 649.634 169.4 642.534 169.4C635.434 169.4 628.234 168.5 621.034 166.6C613.734 164.7 606.334 161.6 598.634 157.2C590.934 152.8 584.034 147.4 577.834 141C571.734 134.6 566.634 126.5 562.734 116.5C558.734 106.6 556.834 95.7 556.834 84.1C556.834 72.4 558.734 61.8 562.634 52.3C566.534 42.8 571.534 34.9 577.534 28.7C583.634 22.5 590.534 17.3 598.334 13.1C613.034 5.00001 627.734 1 642.534 1C649.534 1 656.734 2.10002 663.934 4.30002C671.234 6.50002 676.734 8.70002 680.434 10.9L685.834 14C688.534 15.6 690.634 17 692.134 18C696.034 21.1 697.934 24.7 697.934 28.7C697.934 32.7 696.334 36.8 693.234 41.2C687.434 49.3 682.134 53.3 677.534 53.3C674.834 53.3 671.034 51.7 666.134 48.4C659.834 43.3 651.434 40.8 641.034 40.8C631.334 40.8 621.734 44.2 612.334 50.9C607.834 54.2 604.134 58.8 601.134 64.8C598.134 70.8 596.634 77.6 596.634 85.1C596.634 92.7 598.134 99.4 601.134 105.4C604.134 111.4 607.934 116.1 612.534 119.5C621.634 126.1 631.134 129.4 641.034 129.4C645.634 129.4 650.034 128.8 654.134 127.6C658.134 126.4 661.034 125.2 662.834 124Z" fill="black"/>
<path d="M843.034 5.70001C850.334 10.8 854.034 15.7 854.034 20.5C854.034 23.3 852.334 27.3 848.834 32.4L800.334 104.9V147.8C800.334 151.2 800.234 153.8 800.034 155.5C799.834 157.2 799.134 159.2 797.934 161.4C796.734 163.6 794.734 165.2 791.834 166.1C789.034 167 785.134 167.4 780.434 167.4C775.634 167.4 771.834 167 769.034 166.1C766.234 165.2 764.134 163.6 762.934 161.3C761.734 159 761.034 157 760.834 155.2C760.634 153.5 760.534 150.8 760.534 147.2V104.8L712.034 32.4C708.634 27.3 706.834 23.3 706.834 20.5C706.834 15.7 710.134 11.1 716.734 6.70001C723.334 2.30001 728.034 0.100006 730.834 0.100006C733.634 0.100006 735.934 0.700024 737.534 1.90002C740.034 3.50002 742.734 6.60001 745.634 11.1L780.434 66.8L815.234 11.1C818.034 6.60001 820.534 3.70001 822.634 2.20001C824.734 0.800012 827.134 0.100006 829.934 0.100006C832.734 0.100006 837.134 2.00001 843.034 5.70001Z" fill="black"/>
<path d="M997.034 5.70001C1004.33 10.8 1008.03 15.7 1008.03 20.5C1008.03 23.3 1006.33 27.3 1002.83 32.4L954.334 104.9V147.8C954.334 151.2 954.234 153.8 954.034 155.5C953.834 157.2 953.134 159.2 951.934 161.4C950.734 163.6 948.734 165.2 945.834 166.1C943.034 167 939.134 167.4 934.434 167.4C929.634 167.4 925.834 167 923.034 166.1C920.234 165.2 918.134 163.6 916.934 161.3C915.734 159 915.034 157 914.834 155.2C914.634 153.5 914.534 150.8 914.534 147.2V104.8L866.034 32.3C862.634 27.2 860.834 23.2 860.834 20.4C860.834 15.6 864.134 11 870.734 6.60001C877.334 2.20001 882.034 0 884.834 0C887.634 0 889.934 0.600018 891.534 1.80002C894.034 3.40002 896.734 6.5 899.634 11L934.434 66.7L969.234 11C972.034 6.5 974.534 3.60001 976.634 2.10001C978.734 0.700006 981.134 0 983.934 0C986.634 0.1 991.034 2.00001 997.034 5.70001Z" fill="black"/>
<path d="M65.3344 166.7C60.8344 164.8 57.5344 161.5 54.2344 158.3C44.9344 149 36.8344 138.9 29.5344 128.2C25.0344 121.7 20.7344 115 16.6344 108.2C11.4344 99.6 7.03437 90.6 3.73437 81.2C1.43437 74.5 -0.265635 67.7 0.0343652 60.6C0.534365 48.6 4.23437 37.6 11.4344 27.6C16.2344 20.9 22.3344 15.2 29.5344 10.7C36.5344 6.30002 44.1344 3.20001 52.4344 1.50001C58.4344 0.300009 64.5344 -0.0999727 70.6344 0.300027C77.7344 0.700027 84.6344 2.20002 91.2344 4.70002C102.134 8.90002 111.234 15.3 118.434 23.9C125.934 32.8 130.434 43 132.134 54.3C133.234 61.9 132.634 69.4 130.434 76.8C127.934 85.2 124.334 93.1 120.234 100.9C114.634 111.6 108.034 121.9 100.834 131.7C94.2344 140.8 87.2344 149.6 79.2344 157.6C76.6344 160.2 73.7344 162.5 70.8344 164.9C69.8344 165.7 68.5344 166.2 67.3344 166.8C66.6344 166.9 66.0344 166.9 65.3344 166.7ZM110.534 62.4C110.434 39.8 91.1344 21.4 67.3344 20.9C42.2344 20.4 22.0344 39.5 22.1344 62.7C22.2344 85.7 42.0344 104.1 66.2344 104.2C90.7344 104.3 110.534 85.5 110.534 62.4Z" fill="#0B80FB"/>
<path d="M290.534 53.6C318.034 53.6 345.434 53.6 372.934 53.6C379.534 53.6 379.534 43.3 372.934 43.3C345.434 43.3 318.034 43.3 290.534 43.3C283.934 43.3 283.934 53.6 290.534 53.6Z" fill="#0B80FB"/>
<path d="M290.534 82.5C318.034 82.5 345.434 82.5 372.934 82.5C379.534 82.5 379.534 72.2 372.934 72.2C345.434 72.2 318.034 72.2 290.534 72.2C283.934 72.2 283.934 82.5 290.534 82.5Z" fill="#0B80FB"/>
</svg>
