<svg width="133" height="167" viewBox="0 0 133 167" fill="none" xmlns="http://www.w3.org/2000/svg">
<path d="M65.3344 166.7C60.8344 164.8 57.5344 161.5 54.2344 158.3C44.9344 149 36.8344 138.9 29.5344 128.2C25.0344 121.7 20.7344 115 16.6344 108.2C11.4344 99.6 7.03437 90.6 3.73437 81.2C1.43437 74.5 -0.265635 67.7 0.0343652 60.6C0.534365 48.6 4.23437 37.6 11.4344 27.6C16.2344 20.9 22.3344 15.2 29.5344 10.7C36.5344 6.30002 44.1344 3.20001 52.4344 1.50001C58.4344 0.300009 64.5344 -0.0999727 70.6344 0.300027C77.7344 0.700027 84.6344 2.20002 91.2344 4.70002C102.134 8.90002 111.234 15.3 118.434 23.9C125.934 32.8 130.434 43 132.134 54.3C133.234 61.9 132.634 69.4 130.434 76.8C127.934 85.2 124.334 93.1 120.234 100.9C114.634 111.6 108.034 121.9 100.834 131.7C94.2344 140.8 87.2344 149.6 79.2344 157.6C76.6344 160.2 73.7344 162.5 70.8344 164.9C69.8344 165.7 68.5344 166.2 67.3344 166.8C66.6344 166.9 66.0344 166.9 65.3344 166.7ZM110.534 62.4C110.434 39.8 91.1344 21.4 67.3344 20.9C42.2344 20.4 22.0344 39.5 22.1344 62.7C22.2344 85.7 42.0344 104.1 66.2344 104.2C90.7344 104.3 110.534 85.5 110.534 62.4Z" fill="#0B80FB"/>
</svg>
