<svg width="133" height="167" viewBox="0 0 133 167" fill="none" xmlns="http://www.w3.org/2000/svg">
<path d="M65.3344 166.55C60.8344 164.65 57.5344 161.35 54.2344 158.15C44.9344 148.85 36.8344 138.75 29.5344 128.05C25.0344 121.55 20.7344 114.85 16.6344 108.05C11.4344 99.45 7.03437 90.45 3.73437 81.05C1.43437 74.35 -0.265635 67.55 0.0343652 60.45C0.534365 48.45 4.23437 37.45 11.4344 27.45C16.2344 20.75 22.3344 15.05 29.5344 10.55C36.5344 6.15 44.1344 3.04998 52.4344 1.34998C58.4344 0.149984 64.5344 -0.249997 70.6344 0.150003C77.7344 0.550003 84.6344 2.05 91.2344 4.55C102.134 8.75 111.234 15.15 118.434 23.75C125.934 32.65 130.434 42.85 132.134 54.15C133.234 61.75 132.634 69.25 130.434 76.65C127.934 85.05 124.334 92.95 120.234 100.75C114.634 111.45 108.034 121.75 100.834 131.55C94.2344 140.65 87.2344 149.45 79.2344 157.45C76.6344 160.05 73.7344 162.35 70.8344 164.75C69.8344 165.55 68.5344 166.05 67.3344 166.65C66.6344 166.75 66.0344 166.75 65.3344 166.55ZM110.534 62.25C110.434 39.65 91.1344 21.25 67.3344 20.75C42.2344 20.25 22.0344 39.35 22.1344 62.55C22.2344 85.55 42.0344 103.95 66.2344 104.05C90.7344 104.15 110.534 85.35 110.534 62.25Z" fill="#FF0000"/>
</svg>
